<?xml version="1.0" standalone="no"?>
<svg xmlns="http://www.w3.org/2000/svg" width="500" height="500"><defs><clipPath id="clip-path-dot-color"><circle cx="26" cy="152" r="7" transform="rotate(0,26,152)"/><circle cx="26" cy="180" r="7" transform="rotate(0,26,180)"/><circle cx="26" cy="194" r="7" transform="rotate(0,26,194)"/><circle cx="26" cy="208" r="7" transform="rotate(0,26,208)"/><circle cx="26" cy="250" r="7" transform="rotate(0,26,250)"/><circle cx="26" cy="278" r="7" transform="rotate(0,26,278)"/><circle cx="26" cy="334" r="7" transform="rotate(0,26,334)"/><circle cx="40" cy="152" r="7" transform="rotate(0,40,152)"/><circle cx="40" cy="166" r="7" transform="rotate(0,40,166)"/><circle cx="40" cy="180" r="7" transform="rotate(0,40,180)"/><circle cx="40" cy="194" r="7" transform="rotate(0,40,194)"/><circle cx="40" cy="208" r="7" transform="rotate(0,40,208)"/><circle cx="40" cy="264" r="7" transform="rotate(0,40,264)"/><circle cx="40" cy="278" r="7" transform="rotate(0,40,278)"/><circle cx="40" cy="320" r="7" transform="rotate(0,40,320)"/><circle cx="40" cy="334" r="7" transform="rotate(0,40,334)"/><circle cx="54" cy="152" r="7" transform="rotate(0,54,152)"/><circle cx="54" cy="180" r="7" transform="rotate(0,54,180)"/><circle cx="54" cy="278" r="7" transform="rotate(0,54,278)"/><circle cx="54" cy="292" r="7" transform="rotate(0,54,292)"/><circle cx="54" cy="320" r="7" transform="rotate(0,54,320)"/><circle cx="54" cy="362" r="7" transform="rotate(0,54,362)"/><circle cx="68" cy="138" r="7" transform="rotate(0,68,138)"/><circle cx="68" cy="152" r="7" transform="rotate(0,68,152)"/><circle cx="68" cy="222" r="7" transform="rotate(0,68,222)"/><circle cx="68" cy="236" r="7" transform="rotate(0,68,236)"/><circle cx="68" cy="278" r="7" transform="rotate(0,68,278)"/><circle cx="68" cy="306" r="7" transform="rotate(0,68,306)"/><circle cx="68" cy="320" r="7" transform="rotate(0,68,320)"/><circle cx="82" cy="194" r="7" transform="rotate(0,82,194)"/><circle cx="82" cy="278" r="7" transform="rotate(0,82,278)"/><circle cx="82" cy="292" r="7" transform="rotate(0,82,292)"/><circle cx="82" cy="306" r="7" transform="rotate(0,82,306)"/><circle cx="82" cy="320" r="7" transform="rotate(0,82,320)"/><circle cx="82" cy="334" r="7" transform="rotate(0,82,334)"/><circle cx="96" cy="138" r="7" transform="rotate(0,96,138)"/><circle cx="96" cy="152" r="7" transform="rotate(0,96,152)"/><circle cx="96" cy="166" r="7" transform="rotate(0,96,166)"/><circle cx="96" cy="180" r="7" transform="rotate(0,96,180)"/><circle cx="96" cy="264" r="7" transform="rotate(0,96,264)"/><circle cx="96" cy="278" r="7" transform="rotate(0,96,278)"/><circle cx="96" cy="306" r="7" transform="rotate(0,96,306)"/><circle cx="96" cy="334" r="7" transform="rotate(0,96,334)"/><circle cx="96" cy="362" r="7" transform="rotate(0,96,362)"/><circle cx="110" cy="138" r="7" transform="rotate(0,110,138)"/><circle cx="110" cy="166" r="7" transform="rotate(0,110,166)"/><circle cx="110" cy="194" r="7" transform="rotate(0,110,194)"/><circle cx="110" cy="222" r="7" transform="rotate(0,110,222)"/><circle cx="110" cy="250" r="7" transform="rotate(0,110,250)"/><circle cx="110" cy="278" r="7" transform="rotate(0,110,278)"/><circle cx="110" cy="306" r="7" transform="rotate(0,110,306)"/><circle cx="110" cy="334" r="7" transform="rotate(0,110,334)"/><circle cx="110" cy="362" r="7" transform="rotate(0,110,362)"/><circle cx="124" cy="138" r="7" transform="rotate(0,124,138)"/><circle cx="124" cy="194" r="7" transform="rotate(0,124,194)"/><circle cx="124" cy="222" r="7" transform="rotate(0,124,222)"/><circle cx="124" cy="250" r="7" transform="rotate(0,124,250)"/><circle cx="124" cy="278" r="7" transform="rotate(0,124,278)"/><circle cx="124" cy="334" r="7" transform="rotate(0,124,334)"/><circle cx="138" cy="40" r="7" transform="rotate(0,138,40)"/><circle cx="138" cy="54" r="7" transform="rotate(0,138,54)"/><circle cx="138" cy="110" r="7" transform="rotate(0,138,110)"/><circle cx="138" cy="152" r="7" transform="rotate(0,138,152)"/><circle cx="138" cy="166" r="7" transform="rotate(0,138,166)"/><circle cx="138" cy="194" r="7" transform="rotate(0,138,194)"/><circle cx="138" cy="222" r="7" transform="rotate(0,138,222)"/><circle cx="138" cy="292" r="7" transform="rotate(0,138,292)"/><circle cx="138" cy="390" r="7" transform="rotate(0,138,390)"/><circle cx="138" cy="404" r="7" transform="rotate(0,138,404)"/><circle cx="138" cy="432" r="7" transform="rotate(0,138,432)"/><circle cx="152" cy="40" r="7" transform="rotate(0,152,40)"/><circle cx="152" cy="54" r="7" transform="rotate(0,152,54)"/><circle cx="152" cy="68" r="7" transform="rotate(0,152,68)"/><circle cx="152" cy="82" r="7" transform="rotate(0,152,82)"/><circle cx="152" cy="96" r="7" transform="rotate(0,152,96)"/><circle cx="152" cy="124" r="7" transform="rotate(0,152,124)"/><circle cx="152" cy="194" r="7" transform="rotate(0,152,194)"/><circle cx="152" cy="236" r="7" transform="rotate(0,152,236)"/><circle cx="152" cy="250" r="7" transform="rotate(0,152,250)"/><circle cx="152" cy="292" r="7" transform="rotate(0,152,292)"/><circle cx="152" cy="306" r="7" transform="rotate(0,152,306)"/><circle cx="152" cy="320" r="7" transform="rotate(0,152,320)"/><circle cx="152" cy="348" r="7" transform="rotate(0,152,348)"/><circle cx="152" cy="362" r="7" transform="rotate(0,152,362)"/><circle cx="152" cy="390" r="7" transform="rotate(0,152,390)"/><circle cx="152" cy="432" r="7" transform="rotate(0,152,432)"/><circle cx="152" cy="474" r="7" transform="rotate(0,152,474)"/><circle cx="166" cy="40" r="7" transform="rotate(0,166,40)"/><circle cx="166" cy="54" r="7" transform="rotate(0,166,54)"/><circle cx="166" cy="68" r="7" transform="rotate(0,166,68)"/><circle cx="166" cy="96" r="7" transform="rotate(0,166,96)"/><circle cx="166" cy="110" r="7" transform="rotate(0,166,110)"/><circle cx="166" cy="138" r="7" transform="rotate(0,166,138)"/><circle cx="166" cy="194" r="7" transform="rotate(0,166,194)"/><circle cx="166" cy="222" r="7" transform="rotate(0,166,222)"/><circle cx="166" cy="250" r="7" transform="rotate(0,166,250)"/><circle cx="166" cy="264" r="7" transform="rotate(0,166,264)"/><circle cx="166" cy="278" r="7" transform="rotate(0,166,278)"/><circle cx="166" cy="292" r="7" transform="rotate(0,166,292)"/><circle cx="166" cy="348" r="7" transform="rotate(0,166,348)"/><circle cx="166" cy="362" r="7" transform="rotate(0,166,362)"/><circle cx="166" cy="390" r="7" transform="rotate(0,166,390)"/><circle cx="166" cy="432" r="7" transform="rotate(0,166,432)"/><circle cx="166" cy="446" r="7" transform="rotate(0,166,446)"/><circle cx="166" cy="474" r="7" transform="rotate(0,166,474)"/><circle cx="180" cy="26" r="7" transform="rotate(0,180,26)"/><circle cx="180" cy="82" r="7" transform="rotate(0,180,82)"/><circle cx="180" cy="96" r="7" transform="rotate(0,180,96)"/><circle cx="180" cy="138" r="7" transform="rotate(0,180,138)"/><circle cx="180" cy="152" r="7" transform="rotate(0,180,152)"/><circle cx="180" cy="194" r="7" transform="rotate(0,180,194)"/><circle cx="180" cy="208" r="7" transform="rotate(0,180,208)"/><circle cx="180" cy="222" r="7" transform="rotate(0,180,222)"/><circle cx="180" cy="236" r="7" transform="rotate(0,180,236)"/><circle cx="180" cy="278" r="7" transform="rotate(0,180,278)"/><circle cx="180" cy="334" r="7" transform="rotate(0,180,334)"/><circle cx="180" cy="348" r="7" transform="rotate(0,180,348)"/><circle cx="180" cy="404" r="7" transform="rotate(0,180,404)"/><circle cx="180" cy="418" r="7" transform="rotate(0,180,418)"/><circle cx="180" cy="432" r="7" transform="rotate(0,180,432)"/><circle cx="180" cy="474" r="7" transform="rotate(0,180,474)"/><circle cx="194" cy="26" r="7" transform="rotate(0,194,26)"/><circle cx="194" cy="54" r="7" transform="rotate(0,194,54)"/><circle cx="194" cy="68" r="7" transform="rotate(0,194,68)"/><circle cx="194" cy="96" r="7" transform="rotate(0,194,96)"/><circle cx="194" cy="110" r="7" transform="rotate(0,194,110)"/><circle cx="194" cy="124" r="7" transform="rotate(0,194,124)"/><circle cx="194" cy="138" r="7" transform="rotate(0,194,138)"/><circle cx="194" cy="166" r="7" transform="rotate(0,194,166)"/><circle cx="194" cy="180" r="7" transform="rotate(0,194,180)"/><circle cx="194" cy="194" r="7" transform="rotate(0,194,194)"/><circle cx="194" cy="208" r="7" transform="rotate(0,194,208)"/><circle cx="194" cy="250" r="7" transform="rotate(0,194,250)"/><circle cx="194" cy="264" r="7" transform="rotate(0,194,264)"/><circle cx="194" cy="278" r="7" transform="rotate(0,194,278)"/><circle cx="194" cy="306" r="7" transform="rotate(0,194,306)"/><circle cx="194" cy="320" r="7" transform="rotate(0,194,320)"/><circle cx="194" cy="334" r="7" transform="rotate(0,194,334)"/><circle cx="194" cy="348" r="7" transform="rotate(0,194,348)"/><circle cx="194" cy="362" r="7" transform="rotate(0,194,362)"/><circle cx="194" cy="390" r="7" transform="rotate(0,194,390)"/><circle cx="194" cy="460" r="7" transform="rotate(0,194,460)"/><circle cx="194" cy="474" r="7" transform="rotate(0,194,474)"/><circle cx="208" cy="40" r="7" transform="rotate(0,208,40)"/><circle cx="208" cy="54" r="7" transform="rotate(0,208,54)"/><circle cx="208" cy="68" r="7" transform="rotate(0,208,68)"/><circle cx="208" cy="82" r="7" transform="rotate(0,208,82)"/><circle cx="208" cy="96" r="7" transform="rotate(0,208,96)"/><circle cx="208" cy="124" r="7" transform="rotate(0,208,124)"/><circle cx="208" cy="138" r="7" transform="rotate(0,208,138)"/><circle cx="208" cy="152" r="7" transform="rotate(0,208,152)"/><circle cx="208" cy="166" r="7" transform="rotate(0,208,166)"/><circle cx="208" cy="208" r="7" transform="rotate(0,208,208)"/><circle cx="208" cy="222" r="7" transform="rotate(0,208,222)"/><circle cx="208" cy="236" r="7" transform="rotate(0,208,236)"/><circle cx="208" cy="264" r="7" transform="rotate(0,208,264)"/><circle cx="208" cy="278" r="7" transform="rotate(0,208,278)"/><circle cx="208" cy="306" r="7" transform="rotate(0,208,306)"/><circle cx="208" cy="348" r="7" transform="rotate(0,208,348)"/><circle cx="208" cy="362" r="7" transform="rotate(0,208,362)"/><circle cx="208" cy="390" r="7" transform="rotate(0,208,390)"/><circle cx="208" cy="404" r="7" transform="rotate(0,208,404)"/><circle cx="208" cy="432" r="7" transform="rotate(0,208,432)"/><circle cx="208" cy="446" r="7" transform="rotate(0,208,446)"/><circle cx="208" cy="460" r="7" transform="rotate(0,208,460)"/><circle cx="208" cy="474" r="7" transform="rotate(0,208,474)"/><circle cx="222" cy="26" r="7" transform="rotate(0,222,26)"/><circle cx="222" cy="40" r="7" transform="rotate(0,222,40)"/><circle cx="222" cy="54" r="7" transform="rotate(0,222,54)"/><circle cx="222" cy="96" r="7" transform="rotate(0,222,96)"/><circle cx="222" cy="110" r="7" transform="rotate(0,222,110)"/><circle cx="222" cy="138" r="7" transform="rotate(0,222,138)"/><circle cx="222" cy="166" r="7" transform="rotate(0,222,166)"/><circle cx="222" cy="194" r="7" transform="rotate(0,222,194)"/><circle cx="222" cy="208" r="7" transform="rotate(0,222,208)"/><circle cx="222" cy="222" r="7" transform="rotate(0,222,222)"/><circle cx="222" cy="250" r="7" transform="rotate(0,222,250)"/><circle cx="222" cy="278" r="7" transform="rotate(0,222,278)"/><circle cx="222" cy="306" r="7" transform="rotate(0,222,306)"/><circle cx="222" cy="334" r="7" transform="rotate(0,222,334)"/><circle cx="222" cy="348" r="7" transform="rotate(0,222,348)"/><circle cx="222" cy="362" r="7" transform="rotate(0,222,362)"/><circle cx="222" cy="418" r="7" transform="rotate(0,222,418)"/><circle cx="222" cy="474" r="7" transform="rotate(0,222,474)"/><circle cx="236" cy="40" r="7" transform="rotate(0,236,40)"/><circle cx="236" cy="54" r="7" transform="rotate(0,236,54)"/><circle cx="236" cy="68" r="7" transform="rotate(0,236,68)"/><circle cx="236" cy="96" r="7" transform="rotate(0,236,96)"/><circle cx="236" cy="124" r="7" transform="rotate(0,236,124)"/><circle cx="236" cy="166" r="7" transform="rotate(0,236,166)"/><circle cx="236" cy="208" r="7" transform="rotate(0,236,208)"/><circle cx="236" cy="250" r="7" transform="rotate(0,236,250)"/><circle cx="236" cy="264" r="7" transform="rotate(0,236,264)"/><circle cx="236" cy="292" r="7" transform="rotate(0,236,292)"/><circle cx="236" cy="306" r="7" transform="rotate(0,236,306)"/><circle cx="236" cy="334" r="7" transform="rotate(0,236,334)"/><circle cx="236" cy="348" r="7" transform="rotate(0,236,348)"/><circle cx="236" cy="362" r="7" transform="rotate(0,236,362)"/><circle cx="236" cy="376" r="7" transform="rotate(0,236,376)"/><circle cx="236" cy="390" r="7" transform="rotate(0,236,390)"/><circle cx="236" cy="418" r="7" transform="rotate(0,236,418)"/><circle cx="236" cy="432" r="7" transform="rotate(0,236,432)"/><circle cx="250" cy="68" r="7" transform="rotate(0,250,68)"/><circle cx="250" cy="96" r="7" transform="rotate(0,250,96)"/><circle cx="250" cy="110" r="7" transform="rotate(0,250,110)"/><circle cx="250" cy="180" r="7" transform="rotate(0,250,180)"/><circle cx="250" cy="208" r="7" transform="rotate(0,250,208)"/><circle cx="250" cy="264" r="7" transform="rotate(0,250,264)"/><circle cx="250" cy="278" r="7" transform="rotate(0,250,278)"/><circle cx="250" cy="390" r="7" transform="rotate(0,250,390)"/><circle cx="250" cy="404" r="7" transform="rotate(0,250,404)"/><circle cx="250" cy="460" r="7" transform="rotate(0,250,460)"/><circle cx="264" cy="26" r="7" transform="rotate(0,264,26)"/><circle cx="264" cy="40" r="7" transform="rotate(0,264,40)"/><circle cx="264" cy="54" r="7" transform="rotate(0,264,54)"/><circle cx="264" cy="68" r="7" transform="rotate(0,264,68)"/><circle cx="264" cy="82" r="7" transform="rotate(0,264,82)"/><circle cx="264" cy="166" r="7" transform="rotate(0,264,166)"/><circle cx="264" cy="194" r="7" transform="rotate(0,264,194)"/><circle cx="264" cy="208" r="7" transform="rotate(0,264,208)"/><circle cx="264" cy="222" r="7" transform="rotate(0,264,222)"/><circle cx="264" cy="236" r="7" transform="rotate(0,264,236)"/><circle cx="264" cy="250" r="7" transform="rotate(0,264,250)"/><circle cx="264" cy="292" r="7" transform="rotate(0,264,292)"/><circle cx="264" cy="306" r="7" transform="rotate(0,264,306)"/><circle cx="264" cy="320" r="7" transform="rotate(0,264,320)"/><circle cx="264" cy="348" r="7" transform="rotate(0,264,348)"/><circle cx="264" cy="362" r="7" transform="rotate(0,264,362)"/><circle cx="264" cy="376" r="7" transform="rotate(0,264,376)"/><circle cx="264" cy="390" r="7" transform="rotate(0,264,390)"/><circle cx="264" cy="432" r="7" transform="rotate(0,264,432)"/><circle cx="264" cy="474" r="7" transform="rotate(0,264,474)"/><circle cx="278" cy="54" r="7" transform="rotate(0,278,54)"/><circle cx="278" cy="68" r="7" transform="rotate(0,278,68)"/><circle cx="278" cy="82" r="7" transform="rotate(0,278,82)"/><circle cx="278" cy="110" r="7" transform="rotate(0,278,110)"/><circle cx="278" cy="124" r="7" transform="rotate(0,278,124)"/><circle cx="278" cy="166" r="7" transform="rotate(0,278,166)"/><circle cx="278" cy="180" r="7" transform="rotate(0,278,180)"/><circle cx="278" cy="208" r="7" transform="rotate(0,278,208)"/><circle cx="278" cy="264" r="7" transform="rotate(0,278,264)"/><circle cx="278" cy="278" r="7" transform="rotate(0,278,278)"/><circle cx="278" cy="292" r="7" transform="rotate(0,278,292)"/><circle cx="278" cy="306" r="7" transform="rotate(0,278,306)"/><circle cx="278" cy="348" r="7" transform="rotate(0,278,348)"/><circle cx="278" cy="376" r="7" transform="rotate(0,278,376)"/><circle cx="278" cy="404" r="7" transform="rotate(0,278,404)"/><circle cx="278" cy="432" r="7" transform="rotate(0,278,432)"/><circle cx="278" cy="446" r="7" transform="rotate(0,278,446)"/><circle cx="278" cy="474" r="7" transform="rotate(0,278,474)"/><circle cx="292" cy="26" r="7" transform="rotate(0,292,26)"/><circle cx="292" cy="152" r="7" transform="rotate(0,292,152)"/><circle cx="292" cy="166" r="7" transform="rotate(0,292,166)"/><circle cx="292" cy="208" r="7" transform="rotate(0,292,208)"/><circle cx="292" cy="222" r="7" transform="rotate(0,292,222)"/><circle cx="292" cy="250" r="7" transform="rotate(0,292,250)"/><circle cx="292" cy="264" r="7" transform="rotate(0,292,264)"/><circle cx="292" cy="292" r="7" transform="rotate(0,292,292)"/><circle cx="292" cy="320" r="7" transform="rotate(0,292,320)"/><circle cx="292" cy="362" r="7" transform="rotate(0,292,362)"/><circle cx="292" cy="418" r="7" transform="rotate(0,292,418)"/><circle cx="292" cy="432" r="7" transform="rotate(0,292,432)"/><circle cx="306" cy="26" r="7" transform="rotate(0,306,26)"/><circle cx="306" cy="54" r="7" transform="rotate(0,306,54)"/><circle cx="306" cy="82" r="7" transform="rotate(0,306,82)"/><circle cx="306" cy="110" r="7" transform="rotate(0,306,110)"/><circle cx="306" cy="124" r="7" transform="rotate(0,306,124)"/><circle cx="306" cy="138" r="7" transform="rotate(0,306,138)"/><circle cx="306" cy="194" r="7" transform="rotate(0,306,194)"/><circle cx="306" cy="222" r="7" transform="rotate(0,306,222)"/><circle cx="306" cy="236" r="7" transform="rotate(0,306,236)"/><circle cx="306" cy="250" r="7" transform="rotate(0,306,250)"/><circle cx="306" cy="292" r="7" transform="rotate(0,306,292)"/><circle cx="306" cy="320" r="7" transform="rotate(0,306,320)"/><circle cx="306" cy="348" r="7" transform="rotate(0,306,348)"/><circle cx="306" cy="362" r="7" transform="rotate(0,306,362)"/><circle cx="306" cy="390" r="7" transform="rotate(0,306,390)"/><circle cx="306" cy="404" r="7" transform="rotate(0,306,404)"/><circle cx="320" cy="68" r="7" transform="rotate(0,320,68)"/><circle cx="320" cy="138" r="7" transform="rotate(0,320,138)"/><circle cx="320" cy="194" r="7" transform="rotate(0,320,194)"/><circle cx="320" cy="222" r="7" transform="rotate(0,320,222)"/><circle cx="320" cy="264" r="7" transform="rotate(0,320,264)"/><circle cx="320" cy="320" r="7" transform="rotate(0,320,320)"/><circle cx="320" cy="348" r="7" transform="rotate(0,320,348)"/><circle cx="320" cy="376" r="7" transform="rotate(0,320,376)"/><circle cx="320" cy="390" r="7" transform="rotate(0,320,390)"/><circle cx="320" cy="404" r="7" transform="rotate(0,320,404)"/><circle cx="320" cy="446" r="7" transform="rotate(0,320,446)"/><circle cx="320" cy="474" r="7" transform="rotate(0,320,474)"/><circle cx="334" cy="26" r="7" transform="rotate(0,334,26)"/><circle cx="334" cy="40" r="7" transform="rotate(0,334,40)"/><circle cx="334" cy="54" r="7" transform="rotate(0,334,54)"/><circle cx="334" cy="110" r="7" transform="rotate(0,334,110)"/><circle cx="334" cy="124" r="7" transform="rotate(0,334,124)"/><circle cx="334" cy="138" r="7" transform="rotate(0,334,138)"/><circle cx="334" cy="152" r="7" transform="rotate(0,334,152)"/><circle cx="334" cy="166" r="7" transform="rotate(0,334,166)"/><circle cx="334" cy="194" r="7" transform="rotate(0,334,194)"/><circle cx="334" cy="222" r="7" transform="rotate(0,334,222)"/><circle cx="334" cy="236" r="7" transform="rotate(0,334,236)"/><circle cx="334" cy="250" r="7" transform="rotate(0,334,250)"/><circle cx="334" cy="264" r="7" transform="rotate(0,334,264)"/><circle cx="334" cy="292" r="7" transform="rotate(0,334,292)"/><circle cx="334" cy="348" r="7" transform="rotate(0,334,348)"/><circle cx="334" cy="362" r="7" transform="rotate(0,334,362)"/><circle cx="334" cy="376" r="7" transform="rotate(0,334,376)"/><circle cx="334" cy="432" r="7" transform="rotate(0,334,432)"/><circle cx="334" cy="446" r="7" transform="rotate(0,334,446)"/><circle cx="334" cy="474" r="7" transform="rotate(0,334,474)"/><circle cx="348" cy="68" r="7" transform="rotate(0,348,68)"/><circle cx="348" cy="82" r="7" transform="rotate(0,348,82)"/><circle cx="348" cy="124" r="7" transform="rotate(0,348,124)"/><circle cx="348" cy="152" r="7" transform="rotate(0,348,152)"/><circle cx="348" cy="166" r="7" transform="rotate(0,348,166)"/><circle cx="348" cy="180" r="7" transform="rotate(0,348,180)"/><circle cx="348" cy="236" r="7" transform="rotate(0,348,236)"/><circle cx="348" cy="250" r="7" transform="rotate(0,348,250)"/><circle cx="348" cy="278" r="7" transform="rotate(0,348,278)"/><circle cx="348" cy="334" r="7" transform="rotate(0,348,334)"/><circle cx="348" cy="348" r="7" transform="rotate(0,348,348)"/><circle cx="348" cy="376" r="7" transform="rotate(0,348,376)"/><circle cx="348" cy="404" r="7" transform="rotate(0,348,404)"/><circle cx="348" cy="474" r="7" transform="rotate(0,348,474)"/><circle cx="362" cy="26" r="7" transform="rotate(0,362,26)"/><circle cx="362" cy="40" r="7" transform="rotate(0,362,40)"/><circle cx="362" cy="68" r="7" transform="rotate(0,362,68)"/><circle cx="362" cy="82" r="7" transform="rotate(0,362,82)"/><circle cx="362" cy="110" r="7" transform="rotate(0,362,110)"/><circle cx="362" cy="124" r="7" transform="rotate(0,362,124)"/><circle cx="362" cy="180" r="7" transform="rotate(0,362,180)"/><circle cx="362" cy="208" r="7" transform="rotate(0,362,208)"/><circle cx="362" cy="236" r="7" transform="rotate(0,362,236)"/><circle cx="362" cy="278" r="7" transform="rotate(0,362,278)"/><circle cx="362" cy="292" r="7" transform="rotate(0,362,292)"/><circle cx="362" cy="348" r="7" transform="rotate(0,362,348)"/><circle cx="362" cy="362" r="7" transform="rotate(0,362,362)"/><circle cx="362" cy="376" r="7" transform="rotate(0,362,376)"/><circle cx="362" cy="390" r="7" transform="rotate(0,362,390)"/><circle cx="362" cy="404" r="7" transform="rotate(0,362,404)"/><circle cx="362" cy="418" r="7" transform="rotate(0,362,418)"/><circle cx="362" cy="432" r="7" transform="rotate(0,362,432)"/><circle cx="362" cy="474" r="7" transform="rotate(0,362,474)"/><circle cx="376" cy="138" r="7" transform="rotate(0,376,138)"/><circle cx="376" cy="194" r="7" transform="rotate(0,376,194)"/><circle cx="376" cy="236" r="7" transform="rotate(0,376,236)"/><circle cx="376" cy="250" r="7" transform="rotate(0,376,250)"/><circle cx="376" cy="292" r="7" transform="rotate(0,376,292)"/><circle cx="376" cy="306" r="7" transform="rotate(0,376,306)"/><circle cx="376" cy="334" r="7" transform="rotate(0,376,334)"/><circle cx="376" cy="348" r="7" transform="rotate(0,376,348)"/><circle cx="376" cy="362" r="7" transform="rotate(0,376,362)"/><circle cx="376" cy="418" r="7" transform="rotate(0,376,418)"/><circle cx="376" cy="474" r="7" transform="rotate(0,376,474)"/><circle cx="390" cy="194" r="7" transform="rotate(0,390,194)"/><circle cx="390" cy="208" r="7" transform="rotate(0,390,208)"/><circle cx="390" cy="292" r="7" transform="rotate(0,390,292)"/><circle cx="390" cy="320" r="7" transform="rotate(0,390,320)"/><circle cx="390" cy="334" r="7" transform="rotate(0,390,334)"/><circle cx="390" cy="362" r="7" transform="rotate(0,390,362)"/><circle cx="390" cy="390" r="7" transform="rotate(0,390,390)"/><circle cx="390" cy="418" r="7" transform="rotate(0,390,418)"/><circle cx="390" cy="432" r="7" transform="rotate(0,390,432)"/><circle cx="390" cy="446" r="7" transform="rotate(0,390,446)"/><circle cx="390" cy="474" r="7" transform="rotate(0,390,474)"/><circle cx="404" cy="194" r="7" transform="rotate(0,404,194)"/><circle cx="404" cy="236" r="7" transform="rotate(0,404,236)"/><circle cx="404" cy="306" r="7" transform="rotate(0,404,306)"/><circle cx="404" cy="334" r="7" transform="rotate(0,404,334)"/><circle cx="404" cy="348" r="7" transform="rotate(0,404,348)"/><circle cx="404" cy="362" r="7" transform="rotate(0,404,362)"/><circle cx="404" cy="418" r="7" transform="rotate(0,404,418)"/><circle cx="404" cy="432" r="7" transform="rotate(0,404,432)"/><circle cx="404" cy="460" r="7" transform="rotate(0,404,460)"/><circle cx="404" cy="474" r="7" transform="rotate(0,404,474)"/><circle cx="418" cy="166" r="7" transform="rotate(0,418,166)"/><circle cx="418" cy="180" r="7" transform="rotate(0,418,180)"/><circle cx="418" cy="236" r="7" transform="rotate(0,418,236)"/><circle cx="418" cy="250" r="7" transform="rotate(0,418,250)"/><circle cx="418" cy="292" r="7" transform="rotate(0,418,292)"/><circle cx="418" cy="306" r="7" transform="rotate(0,418,306)"/><circle cx="418" cy="320" r="7" transform="rotate(0,418,320)"/><circle cx="418" cy="334" r="7" transform="rotate(0,418,334)"/><circle cx="418" cy="348" r="7" transform="rotate(0,418,348)"/><circle cx="418" cy="362" r="7" transform="rotate(0,418,362)"/><circle cx="418" cy="376" r="7" transform="rotate(0,418,376)"/><circle cx="418" cy="390" r="7" transform="rotate(0,418,390)"/><circle cx="418" cy="404" r="7" transform="rotate(0,418,404)"/><circle cx="418" cy="418" r="7" transform="rotate(0,418,418)"/><circle cx="432" cy="152" r="7" transform="rotate(0,432,152)"/><circle cx="432" cy="166" r="7" transform="rotate(0,432,166)"/><circle cx="432" cy="194" r="7" transform="rotate(0,432,194)"/><circle cx="432" cy="208" r="7" transform="rotate(0,432,208)"/><circle cx="432" cy="222" r="7" transform="rotate(0,432,222)"/><circle cx="432" cy="236" r="7" transform="rotate(0,432,236)"/><circle cx="432" cy="264" r="7" transform="rotate(0,432,264)"/><circle cx="432" cy="306" r="7" transform="rotate(0,432,306)"/><circle cx="432" cy="334" r="7" transform="rotate(0,432,334)"/><circle cx="432" cy="348" r="7" transform="rotate(0,432,348)"/><circle cx="432" cy="362" r="7" transform="rotate(0,432,362)"/><circle cx="432" cy="376" r="7" transform="rotate(0,432,376)"/><circle cx="432" cy="404" r="7" transform="rotate(0,432,404)"/><circle cx="432" cy="418" r="7" transform="rotate(0,432,418)"/><circle cx="432" cy="432" r="7" transform="rotate(0,432,432)"/><circle cx="432" cy="446" r="7" transform="rotate(0,432,446)"/><circle cx="432" cy="474" r="7" transform="rotate(0,432,474)"/><circle cx="446" cy="138" r="7" transform="rotate(0,446,138)"/><circle cx="446" cy="152" r="7" transform="rotate(0,446,152)"/><circle cx="446" cy="166" r="7" transform="rotate(0,446,166)"/><circle cx="446" cy="194" r="7" transform="rotate(0,446,194)"/><circle cx="446" cy="208" r="7" transform="rotate(0,446,208)"/><circle cx="446" cy="250" r="7" transform="rotate(0,446,250)"/><circle cx="446" cy="264" r="7" transform="rotate(0,446,264)"/><circle cx="446" cy="278" r="7" transform="rotate(0,446,278)"/><circle cx="446" cy="306" r="7" transform="rotate(0,446,306)"/><circle cx="446" cy="376" r="7" transform="rotate(0,446,376)"/><circle cx="446" cy="404" r="7" transform="rotate(0,446,404)"/><circle cx="446" cy="418" r="7" transform="rotate(0,446,418)"/><circle cx="446" cy="432" r="7" transform="rotate(0,446,432)"/><circle cx="446" cy="460" r="7" transform="rotate(0,446,460)"/><circle cx="446" cy="474" r="7" transform="rotate(0,446,474)"/><circle cx="460" cy="138" r="7" transform="rotate(0,460,138)"/><circle cx="460" cy="166" r="7" transform="rotate(0,460,166)"/><circle cx="460" cy="194" r="7" transform="rotate(0,460,194)"/><circle cx="460" cy="250" r="7" transform="rotate(0,460,250)"/><circle cx="460" cy="264" r="7" transform="rotate(0,460,264)"/><circle cx="460" cy="292" r="7" transform="rotate(0,460,292)"/><circle cx="460" cy="306" r="7" transform="rotate(0,460,306)"/><circle cx="460" cy="362" r="7" transform="rotate(0,460,362)"/><circle cx="460" cy="376" r="7" transform="rotate(0,460,376)"/><circle cx="460" cy="404" r="7" transform="rotate(0,460,404)"/><circle cx="460" cy="418" r="7" transform="rotate(0,460,418)"/><circle cx="460" cy="432" r="7" transform="rotate(0,460,432)"/><circle cx="474" cy="166" r="7" transform="rotate(0,474,166)"/><circle cx="474" cy="222" r="7" transform="rotate(0,474,222)"/><circle cx="474" cy="236" r="7" transform="rotate(0,474,236)"/><circle cx="474" cy="250" r="7" transform="rotate(0,474,250)"/><circle cx="474" cy="278" r="7" transform="rotate(0,474,278)"/><circle cx="474" cy="306" r="7" transform="rotate(0,474,306)"/><circle cx="474" cy="362" r="7" transform="rotate(0,474,362)"/><circle cx="474" cy="390" r="7" transform="rotate(0,474,390)"/><circle cx="474" cy="404" r="7" transform="rotate(0,474,404)"/><circle cx="474" cy="418" r="7" transform="rotate(0,474,418)"/><circle cx="474" cy="432" r="7" transform="rotate(0,474,432)"/><circle cx="474" cy="474" r="7" transform="rotate(0,474,474)"/><path clip-rule="evenodd" d="M 19 54v 28a 35 35, 0, 0, 0, 35 35h 28a 35 35, 0, 0, 0, 35 -35v -28a 35 35, 0, 0, 0, -35 -35h -28a 35 35, 0, 0, 0, -35 35M 54 33h 28a 21 21, 0, 0, 1, 21 21v 28a 21 21, 0, 0, 1, -21 21h -28a 21 21, 0, 0, 1, -21 -21v -28a 21 21, 0, 0, 1, 21 -21" transform="rotate(0,68,68)"/><rect x="47" y="47" width="42" height="42" transform="rotate(0,68,68)"/><path clip-rule="evenodd" d="M 383 54v 28a 35 35, 0, 0, 0, 35 35h 28a 35 35, 0, 0, 0, 35 -35v -28a 35 35, 0, 0, 0, -35 -35h -28a 35 35, 0, 0, 0, -35 35M 418 33h 28a 21 21, 0, 0, 1, 21 21v 28a 21 21, 0, 0, 1, -21 21h -28a 21 21, 0, 0, 1, -21 -21v -28a 21 21, 0, 0, 1, 21 -21" transform="rotate(90,432,68)"/><rect x="411" y="47" width="42" height="42" transform="rotate(90,432,68)"/><path clip-rule="evenodd" d="M 19 418v 28a 35 35, 0, 0, 0, 35 35h 28a 35 35, 0, 0, 0, 35 -35v -28a 35 35, 0, 0, 0, -35 -35h -28a 35 35, 0, 0, 0, -35 35M 54 397h 28a 21 21, 0, 0, 1, 21 21v 28a 21 21, 0, 0, 1, -21 21h -28a 21 21, 0, 0, 1, -21 -21v -28a 21 21, 0, 0, 1, 21 -21" transform="rotate(-90,68,432)"/><rect x="47" y="411" width="42" height="42" transform="rotate(-90,68,432)"/></clipPath></defs><rect x="0" y="0" height="500" width="500" clip-path="url('#clip-path-background-color')" fill="#fff"/><rect x="0" y="0" height="500" width="500" clip-path="url('#clip-path-dot-color')" fill="#000000"/></svg>